<svg xmlns="http://www.w3.org/2000/svg" width="1600" height="1067" viewBox="0 0 1200 800" role="img" aria-labelledby="title desc">
  <title id="title">Con Dao works best with respect and patience</title>
  <desc id="desc">Generated travel illustration for Con Dao works best with respect and patience.</desc>
  <defs>
    <linearGradient id="bg" x1="0" x2="1" y1="0" y2="1">
      <stop offset="0%" stop-color="#253b2d"/>
      <stop offset="55%" stop-color="#7a9b64"/>
      <stop offset="100%" stop-color="#d9a441"/>
    </linearGradient>
    <radialGradient id="sun" cx="50%" cy="50%" r="50%">
      <stop offset="0%" stop-color="#f6f2e8" stop-opacity=".95"/>
      <stop offset="100%" stop-color="#d9a441" stop-opacity=".35"/>
    </radialGradient>
    <filter id="grain">
      <feTurbulence type="fractalNoise" baseFrequency=".9" numOctaves="3" stitchTiles="stitch"/>
      <feColorMatrix type="saturate" values="0"/>
      <feComponentTransfer>
        <feFuncA type="table" tableValues="0 .08"/>
      </feComponentTransfer>
    </filter>
  </defs>
  <rect width="1200" height="800" fill="url(#bg)"/>
  <circle cx="1088" cy="278" r="128" fill="url(#sun)" opacity=".86"/>
  <path d="M0 215 C190 125 310 230 505 150 C720 60 885 165 1200 85" stroke="#f6f2e8" stroke-width="20" opacity=".11" fill="none"/>
  <path d="M0 315 C250 230 380 325 620 250 C805 195 1000 230 1200 172" stroke="#f6f2e8" stroke-width="12" opacity=".13" fill="none"/>
  
      <path d="M0 620 C160 565 315 650 500 590 C735 515 930 610 1200 535 L1200 705 L0 705 Z" fill="#7a9b64" opacity=".65"/>
      <path d="M120 655 C210 520 285 512 350 655 Z" fill="#253b2d" opacity=".95"/>
      <path d="M500 655 C590 450 720 450 805 655 Z" fill="#253b2d" opacity=".88"/>
      <path d="M905 655 C990 520 1060 525 1128 655 Z" fill="#253b2d" opacity=".9"/>
      <path d="M120 675 C370 640 650 710 1090 655" stroke="#f6f2e8" stroke-width="13" opacity=".3" fill="none"/>
  <rect width="1200" height="800" fill="#253b2d" opacity=".14"/>
  <rect width="1200" height="800" filter="url(#grain)" opacity=".55"/>
  <g transform="translate(70 78)">
    <rect x="0" y="0" width="355" height="48" rx="24" fill="#f6f2e8" opacity=".17"/>
    <text x="26" y="32" fill="#f6f2e8" font-family="Inter, Arial, sans-serif" font-size="19" font-weight="800" letter-spacing="3">VIETNAM RESEARCH</text>
  </g>
  <g transform="translate(72 485)">
    <text x="0" y="0" fill="#f6f2e8" font-family="Georgia, 'Times New Roman', serif" font-size="50" font-weight="700">Con Dao works best with</text>
    <text x="0" y="58" fill="#f6f2e8" font-family="Georgia, 'Times New Roman', serif" font-size="50" font-weight="700">respect and patience</text>
  </g>
</svg>
