<svg xmlns="http://www.w3.org/2000/svg" width="1600" height="1067" viewBox="0 0 1200 800" role="img" aria-labelledby="title desc">
  <title id="title">Speeding, seatbelts, and breakdowns: the Peru bus checklist</title>
  <desc id="desc">Generated travel illustration for Speeding, seatbelts, and breakdowns: the Peru bus checklist.</desc>
  <defs>
    <linearGradient id="bg" x1="0" x2="1" y1="0" y2="1">
      <stop offset="0%" stop-color="#253b2d"/>
      <stop offset="55%" stop-color="#7a9b64"/>
      <stop offset="100%" stop-color="#d9a441"/>
    </linearGradient>
    <radialGradient id="sun" cx="50%" cy="50%" r="50%">
      <stop offset="0%" stop-color="#f6f2e8" stop-opacity=".95"/>
      <stop offset="100%" stop-color="#d9a441" stop-opacity=".35"/>
    </radialGradient>
    <filter id="grain">
      <feTurbulence type="fractalNoise" baseFrequency=".9" numOctaves="3" stitchTiles="stitch"/>
      <feColorMatrix type="saturate" values="0"/>
      <feComponentTransfer>
        <feFuncA type="table" tableValues="0 .08"/>
      </feComponentTransfer>
    </filter>
  </defs>
  <rect width="1200" height="800" fill="url(#bg)"/>
  <circle cx="1086" cy="256" r="121" fill="url(#sun)" opacity=".86"/>
  <path d="M0 215 C190 125 310 230 505 150 C720 60 885 165 1200 85" stroke="#f6f2e8" stroke-width="20" opacity=".11" fill="none"/>
  <path d="M0 315 C250 230 380 325 620 250 C805 195 1000 230 1200 172" stroke="#f6f2e8" stroke-width="12" opacity=".13" fill="none"/>
  
      <path d="M0 620 C165 575 250 640 400 590 C610 520 720 630 915 555 C1030 510 1120 535 1200 500 L1200 705 L0 705 Z" fill="#7a9b64" opacity=".85"/>
      <rect x="98" y="415" width="110" height="230" rx="8" fill="#d9a441" opacity=".9"/>
      <rect x="238" y="365" width="120" height="280" rx="8" fill="#f0b35a" opacity=".75"/>
      <rect x="388" y="445" width="112" height="200" rx="8" fill="#f6f2e8" opacity=".45"/>
      <path d="M80 385 L522 385" stroke="#f6f2e8" stroke-width="12" opacity=".35"/>
      <path d="M85 700 C245 610 415 610 570 700" stroke="#d9a441" stroke-width="15" opacity=".75" fill="none"/>
  <rect width="1200" height="800" fill="#253b2d" opacity=".14"/>
  <rect width="1200" height="800" filter="url(#grain)" opacity=".55"/>
  <g transform="translate(70 78)">
    <rect x="0" y="0" width="355" height="48" rx="24" fill="#f6f2e8" opacity=".17"/>
    <text x="26" y="32" fill="#f6f2e8" font-family="Inter, Arial, sans-serif" font-size="19" font-weight="800" letter-spacing="3">PERU RESEARCH</text>
  </g>
  <g transform="translate(72 485)">
    <text x="0" y="0" fill="#f6f2e8" font-family="Georgia, 'Times New Roman', serif" font-size="44" font-weight="700">Speeding, seatbelts, and</text>
    <text x="0" y="58" fill="#f6f2e8" font-family="Georgia, 'Times New Roman', serif" font-size="44" font-weight="700">breakdowns: the Peru bus</text>
    <text x="0" y="116" fill="#f6f2e8" font-family="Georgia, 'Times New Roman', serif" font-size="44" font-weight="700">checklist</text>
  </g>
</svg>
