<svg xmlns="http://www.w3.org/2000/svg" width="1600" height="1067" viewBox="0 0 1200 800" role="img" aria-labelledby="title desc">
  <title id="title">Vietnam travelers need useful, secure tourism apps</title>
  <desc id="desc">Generated travel illustration for Vietnam travelers need useful, secure tourism apps.</desc>
  <defs>
    <linearGradient id="bg" x1="0" x2="1" y1="0" y2="1">
      <stop offset="0%" stop-color="#253b2d"/>
      <stop offset="55%" stop-color="#7a9b64"/>
      <stop offset="100%" stop-color="#d9a441"/>
    </linearGradient>
    <radialGradient id="sun" cx="50%" cy="50%" r="50%">
      <stop offset="0%" stop-color="#f6f2e8" stop-opacity=".95"/>
      <stop offset="100%" stop-color="#d9a441" stop-opacity=".35"/>
    </radialGradient>
    <filter id="grain">
      <feTurbulence type="fractalNoise" baseFrequency=".9" numOctaves="3" stitchTiles="stitch"/>
      <feColorMatrix type="saturate" values="0"/>
      <feComponentTransfer>
        <feFuncA type="table" tableValues="0 .08"/>
      </feComponentTransfer>
    </filter>
  </defs>
  <rect width="1200" height="800" fill="url(#bg)"/>
  <circle cx="1088" cy="258" r="153" fill="url(#sun)" opacity=".86"/>
  <path d="M0 215 C190 125 310 230 505 150 C720 60 885 165 1200 85" stroke="#f6f2e8" stroke-width="20" opacity=".11" fill="none"/>
  <path d="M0 315 C250 230 380 325 620 250 C805 195 1000 230 1200 172" stroke="#f6f2e8" stroke-width="12" opacity=".13" fill="none"/>
  
      <path d="M0 705 L0 512 L92 512 L92 442 L190 442 L190 565 L292 565 L292 398 L390 398 L390 705 Z" fill="#253b2d" opacity=".9"/>
      <path d="M420 705 L420 460 L535 460 L535 350 L650 350 L650 545 L770 545 L770 430 L870 430 L870 705 Z" fill="#7a9b64" opacity=".88"/>
      <path d="M900 705 L900 515 L990 515 L990 455 L1078 455 L1078 590 L1200 590 L1200 705 Z" fill="#253b2d" opacity=".78"/>
      <path d="M90 662 C330 612 560 690 805 630 C980 585 1080 615 1200 585" stroke="#d9a441" stroke-width="13" opacity=".7" fill="none"/>
  <rect width="1200" height="800" fill="#253b2d" opacity=".14"/>
  <rect width="1200" height="800" filter="url(#grain)" opacity=".55"/>
  <g transform="translate(70 78)">
    <rect x="0" y="0" width="355" height="48" rx="24" fill="#f6f2e8" opacity=".17"/>
    <text x="26" y="32" fill="#f6f2e8" font-family="Inter, Arial, sans-serif" font-size="19" font-weight="800" letter-spacing="3">VIETNAM RESEARCH</text>
  </g>
  <g transform="translate(72 485)">
    <text x="0" y="0" fill="#f6f2e8" font-family="Georgia, 'Times New Roman', serif" font-size="50" font-weight="700">Vietnam travelers need</text>
    <text x="0" y="58" fill="#f6f2e8" font-family="Georgia, 'Times New Roman', serif" font-size="50" font-weight="700">useful, secure tourism apps</text>
  </g>
</svg>
