<svg xmlns="http://www.w3.org/2000/svg" width="1600" height="1067" viewBox="0 0 1200 800" role="img" aria-labelledby="title desc">
  <title id="title">Vietnam's South Central Coast needs credible online information</title>
  <desc id="desc">Generated travel illustration for Vietnam's South Central Coast needs credible online information.</desc>
  <defs>
    <linearGradient id="bg" x1="0" x2="1" y1="0" y2="1">
      <stop offset="0%" stop-color="#153d5b"/>
      <stop offset="55%" stop-color="#4aa3a4"/>
      <stop offset="100%" stop-color="#f0b35a"/>
    </linearGradient>
    <radialGradient id="sun" cx="50%" cy="50%" r="50%">
      <stop offset="0%" stop-color="#f7f7f0" stop-opacity=".95"/>
      <stop offset="100%" stop-color="#f0b35a" stop-opacity=".35"/>
    </radialGradient>
    <filter id="grain">
      <feTurbulence type="fractalNoise" baseFrequency=".9" numOctaves="3" stitchTiles="stitch"/>
      <feColorMatrix type="saturate" values="0"/>
      <feComponentTransfer>
        <feFuncA type="table" tableValues="0 .08"/>
      </feComponentTransfer>
    </filter>
  </defs>
  <rect width="1200" height="800" fill="url(#bg)"/>
  <circle cx="1142" cy="192" r="157" fill="url(#sun)" opacity=".86"/>
  <path d="M0 215 C190 125 310 230 505 150 C720 60 885 165 1200 85" stroke="#f7f7f0" stroke-width="20" opacity=".11" fill="none"/>
  <path d="M0 315 C250 230 380 325 620 250 C805 195 1000 230 1200 172" stroke="#f7f7f0" stroke-width="12" opacity=".13" fill="none"/>
  
      <path d="M0 620 C160 565 315 650 500 590 C735 515 930 610 1200 535 L1200 705 L0 705 Z" fill="#4aa3a4" opacity=".65"/>
      <path d="M120 655 C210 520 285 512 350 655 Z" fill="#153d5b" opacity=".95"/>
      <path d="M500 655 C590 450 720 450 805 655 Z" fill="#153d5b" opacity=".88"/>
      <path d="M905 655 C990 520 1060 525 1128 655 Z" fill="#153d5b" opacity=".9"/>
      <path d="M120 675 C370 640 650 710 1090 655" stroke="#f7f7f0" stroke-width="13" opacity=".3" fill="none"/>
  <rect width="1200" height="800" fill="#153d5b" opacity=".14"/>
  <rect width="1200" height="800" filter="url(#grain)" opacity=".55"/>
  <g transform="translate(70 78)">
    <rect x="0" y="0" width="355" height="48" rx="24" fill="#f7f7f0" opacity=".17"/>
    <text x="26" y="32" fill="#f7f7f0" font-family="Inter, Arial, sans-serif" font-size="19" font-weight="800" letter-spacing="3">VIETNAM RESEARCH</text>
  </g>
  <g transform="translate(72 485)">
    <text x="0" y="0" fill="#f7f7f0" font-family="Georgia, 'Times New Roman', serif" font-size="44" font-weight="700">Vietnam's South Central</text>
    <text x="0" y="58" fill="#f7f7f0" font-family="Georgia, 'Times New Roman', serif" font-size="44" font-weight="700">Coast needs credible online</text>
    <text x="0" y="116" fill="#f7f7f0" font-family="Georgia, 'Times New Roman', serif" font-size="44" font-weight="700">information</text>
  </g>
</svg>
